<svg xmlns="http://www.w3.org/2000/svg" width="500" height="177.883" viewBox="0 0 132.292 47.065"><g style="display:inline"><g style="fill:#fff;fill-opacity:1"><path style="fill:#fff;fill-opacity:1" d="M120.544 113.427c4.57 9.9 1.62 20.81-7.7 28.48-9.32 7.67-20.6 8.46-29.43 2.06-1.01-.77-1.98-1.59-2.89-2.45l11.14-9.13-2.09-2.55-.05-.07c-.14-.17-.27-.35-.41-.53a.55.55 0 0 0-.07-.09c-.01-.02-.03-.04-.04-.05l-.39-.54c-1.06-1.48-2-3.07-2.81-4.75-4.54-9.92-1.56-20.82 7.78-28.46 9.35-7.64 20.63-8.39 29.44-1.96.99.76 1.94 1.56 2.83 2.42l-11.11 9.1 2.04 2.56c.14.17.28.35.42.54l.52.71c1.05 1.43 2 3.02 2.82 4.71z" transform="matrix(.32343 0 0 .32343 -15.52 -17.45)"/><g style="fill:#fff;fill-opacity:1"><path style="fill:#fff;fill-opacity:1" d="M155.059 62.841c-2.67-6.7-6.53-12.61-11.47-17.58-4.95-4.97-10.82-8.84-17.46-11.5-6.83-2.74-14.28-4.12-22.16-4.12-7.88 0-15.34 1.39-22.16 4.12-6.64 2.66-12.52 6.53-17.46 11.5-4.95 4.97-8.81 10.88-11.47 17.58-2.47 6.2-3.85 12.93-4.12 20.03l13.67.02c.17-.96.37-1.91.6-2.86l.03-.13.03-.13c1.18-4.5 3.06-8.68 5.6-12.43 2.54-3.75 5.7-7.01 9.39-9.68 7.22-5.23 16.17-7.99 25.89-7.99 9.72 0 18.67 2.76 25.89 7.99 3.69 2.67 6.85 5.93 9.39 9.68 2.54 3.75 4.42 7.93 5.6 12.43l.03.13.03.13c.23.95.43 1.9.6 2.86l13.67-.02c-.26-7.1-1.65-13.82-4.12-20.03zM159.179 105.811l-13.67-.02c-.17.96-.37 1.91-.6 2.86l-.03.13-.03.13c-1.18 4.5-3.06 8.68-5.6 12.43-2.54 3.75-5.7 7.01-9.39 9.68-7.22 5.23-16.17 7.99-25.89 7.99-9.72 0-18.67-2.76-25.89-7.99a38.729 38.729 0 0 1-9.39-9.68c-2.54-3.75-4.42-7.93-5.6-12.43l-.03-.13-.03-.13c-.23-.95-.43-1.9-.6-2.86l-13.67.02c.27 7.1 1.65 13.82 4.12 20.03 2.67 6.7 6.53 12.61 11.47 17.58 4.95 4.97 10.82 8.84 17.46 11.5 6.83 2.74 14.28 4.12 22.16 4.12 7.88 0 15.34-1.39 22.16-4.12 6.64-2.66 12.52-6.53 17.46-11.5 4.95-4.97 8.81-10.88 11.47-17.58 2.47-6.21 3.86-12.94 4.12-20.03z" transform="matrix(.32343 0 0 .32343 -15.77 -9.587)"/></g><g style="fill:#fff;fill-opacity:1"><path class="st0" d="M188.686 167.144c-3.14-.86-5.79-2.25-7.95-4.16l7.44-8.98c1.42 1.28 3.07 2.31 4.93 3.09 1.87.79 3.83 1.18 5.89 1.18.93 0 1.71-.09 2.32-.26.61-.17.92-.45.92-.85 0-.44-.42-.85-1.25-1.22-.84-.37-2.26-.75-4.27-1.14-5.3-1.03-9.17-2.52-11.6-4.46-2.43-1.94-3.64-4.41-3.64-7.4 0-2.16.72-4.21 2.17-6.15 1.45-1.94 3.67-3.53 6.66-4.79 2.99-1.25 6.7-1.88 11.12-1.88 4.32 0 7.94.52 10.86 1.55 2.92 1.03 5.22 2.31 6.88 3.83l-6.92 8.17c-2.26-2.26-5.6-3.39-10.01-3.39-1.33 0-2.28.12-2.87.37-.59.25-.88.56-.88.96 0 .59 1.5 1.08 4.49 1.47 5.64.79 9.77 2.15 12.37 4.09 2.6 1.94 3.9 4.6 3.9 7.99 0 3.83-1.57 7-4.71 9.5-3.14 2.5-7.9 3.76-14.29 3.76-4.57.01-8.42-.42-11.56-1.28zm67.41-33.36c3.02 2.43 4.58 5.39 4.68 8.87l-15.61 4.57c.15-3.78-.84-5.67-2.95-5.67-1.52 0-2.61.58-3.28 1.73-.66 1.15-.99 3.23-.99 6.22 0 2.95.36 4.93 1.07 5.96.71 1.03 1.75 1.55 3.13 1.55 1.03 0 1.82-.41 2.36-1.22.54-.81.86-2.03.96-3.64l15.17 4.71c0 2.11-.72 4.04-2.17 5.78-1.45 1.74-3.56 3.14-6.33 4.2-2.77 1.05-6.08 1.58-9.9 1.58-6.97 0-12.26-1.64-15.87-4.93-3.61-3.29-5.41-8.03-5.41-14.21 0-6.09 1.78-10.8 5.34-14.14 3.56-3.34 8.58-5.01 15.06-5.01 6.8.01 11.72 1.22 14.74 3.65zm10.02-9.53c-1.4-1.08-2.1-2.9-2.1-5.45 0-2.55.7-4.37 2.1-5.45 1.4-1.08 3.77-1.62 7.11-1.62 3.34 0 5.71.54 7.11 1.62 1.4 1.08 2.1 2.9 2.1 5.45 0 2.55-.7 4.37-2.1 5.45-1.4 1.08-3.77 1.62-7.11 1.62-3.35 0-5.71-.54-7.11-1.62zm15.57 43.44h-16.94v-36.82h16.94zm43.96-15.16h-23.42c.25 1.82.76 3.04 1.55 3.68.78.64 1.96.96 3.53.96 2.4 0 3.88-1.06 4.42-3.17l13.62 3.68c-.84 3.53-2.88 6.21-6.15 8.03-3.27 1.82-7.23 2.72-11.89 2.72-6.97 0-12.26-1.64-15.87-4.93-3.61-3.29-5.41-8.03-5.41-14.21 0-6.09 1.78-10.8 5.34-14.14 3.56-3.34 8.58-5.01 15.06-5.01 6.33 0 11.18 1.62 14.54 4.86 3.36 3.24 5.04 7.61 5.04 13.11.01 1.86-.11 3.34-.36 4.42zm-22.09-10.09c-.69.74-1.13 2.01-1.33 3.83h7.95c-.15-1.67-.5-2.91-1.07-3.72-.57-.81-1.44-1.22-2.61-1.22-1.27 0-2.25.37-2.94 1.11zm63.74-9.06c2.04 2.16 3.06 5.2 3.06 9.13v25.18h-16.94v-20.77c0-1.62-.2-2.74-.59-3.35-.39-.61-1.06-.92-1.99-.92-1.23 0-2.12.47-2.69 1.4-.56.93-.85 2.38-.85 4.35v19.29h-16.94v-36.82h15.24l.37 8.03c1.08-2.85 2.7-5.02 4.86-6.52s4.81-2.25 7.95-2.25c3.64.01 6.48 1.09 8.52 3.25zm42.49.4c3.02 2.43 4.58 5.39 4.68 8.87l-15.61 4.57c.15-3.78-.84-5.67-2.95-5.67-1.52 0-2.61.58-3.28 1.73-.66 1.15-.99 3.23-.99 6.22 0 2.95.36 4.93 1.07 5.96.71 1.03 1.75 1.55 3.13 1.55 1.03 0 1.82-.41 2.36-1.22.54-.81.86-2.03.96-3.64l15.17 4.71c0 2.11-.72 4.04-2.17 5.78-1.45 1.74-3.56 3.14-6.33 4.2-2.77 1.05-6.08 1.58-9.9 1.58-6.97 0-12.26-1.64-15.87-4.93-3.61-3.29-5.41-8.03-5.41-14.21 0-6.09 1.78-10.8 5.34-14.14 3.56-3.34 8.58-5.01 15.06-5.01 6.8.01 11.72 1.22 14.74 3.65zm46.87 18.75h-23.42c.25 1.82.76 3.04 1.55 3.68.78.64 1.96.96 3.53.96 2.4 0 3.88-1.06 4.42-3.17l13.62 3.68c-.84 3.53-2.88 6.21-6.15 8.03-3.27 1.82-7.23 2.72-11.89 2.72-6.97 0-12.26-1.64-15.87-4.93-3.61-3.29-5.41-8.03-5.41-14.21 0-6.09 1.78-10.8 5.34-14.14 3.56-3.34 8.58-5.01 15.06-5.01 6.33 0 11.18 1.62 14.54 4.86 3.36 3.24 5.04 7.61 5.04 13.11.01 1.86-.12 3.34-.36 4.42zm-22.09-10.09c-.69.74-1.13 2.01-1.33 3.83h7.95c-.15-1.67-.5-2.91-1.07-3.72-.57-.81-1.44-1.22-2.61-1.22-1.28 0-2.26.37-2.94 1.11zM201.276 96.864c-1.23 0-2.2-.31-2.87-.92-.67-.6-1.11-1.53-1.34-2.84-.21-1.14-.31-2.77-.31-4.96s.1-3.82.31-4.96c.24-1.31.68-2.24 1.34-2.84.68-.61 1.64-.92 2.87-.92 1.23 0 2.2.31 2.87.92.67.6 1.1 1.53 1.34 2.84.21 1.15.31 2.78.31 4.96 0 2.19-.1 3.81-.31 4.96-.24 1.32-.68 2.24-1.34 2.84-.68.62-1.64.92-2.87.92zm0-15.46c-.5 0-1.17.07-1.54.41-.22.2-.53.66-.72 1.72-.19 1.02-.28 2.57-.28 4.61 0 2.04.09 3.6.28 4.61.19 1.06.5 1.52.72 1.72.37.34 1.05.41 1.54.41.5 0 1.17-.07 1.54-.41.22-.2.52-.66.72-1.72.19-1.02.28-2.57.28-4.61 0-2.04-.09-3.59-.28-4.61-.19-1.06-.5-1.52-.72-1.72-.37-.34-1.04-.41-1.54-.41zm45.43 14.95c-1.6 0-2.85-.77-3.61-2.23-.67-1.28-1-3.14-1-5.69v-.59c0-2.65.34-4.56 1.05-5.82.79-1.42 2.02-2.17 3.56-2.17 1.62 0 2.9.71 3.72 2.06.74 1.23 1.1 3.26 1.1 6.22s-.36 4.99-1.11 6.19c-.81 1.33-2.1 2.03-3.71 2.03zm0-14.51c-.82 0-1.38.35-1.82 1.15-.53.95-.8 2.58-.8 4.86v.59c0 2.18.26 3.79.77 4.77.42.8.99 1.16 1.84 1.16.93 0 1.57-.34 2.03-1.08.37-.6.81-1.97.81-5.15 0-3.18-.44-4.58-.81-5.19-.46-.76-1.1-1.11-2.02-1.11zm49.46 4.27h-10.14l.12-1.1c.22-2.05.74-3.49 1.59-4.4.88-.94 2.12-1.42 3.67-1.42 1.89 0 2.91.89 3.43 1.64.67.97 1.08 2.34 1.24 4.2zm-7.88-1.98h5.67c-.16-.94-.42-1.67-.76-2.16-.24-.34-.68-.79-1.8-.79-1 0-1.72.26-2.22.79-.29.31-.65.93-.89 2.16zm-87.01 23.55c-6.76 0-12.09-1.77-15.85-5.27-3.78-3.52-5.69-8.52-5.69-14.86 0-6.35 1.91-11.35 5.69-14.86 3.76-3.5 9.09-5.27 15.85-5.27s12.09 1.77 15.85 5.27c3.78 3.52 5.69 8.52 5.69 14.86 0 6.35-1.91 11.35-5.69 14.86-3.76 3.5-9.09 5.27-15.85 5.27zm0-38.29c-6.24 0-11.11 1.59-14.49 4.74-3.36 3.13-5.06 7.64-5.06 13.41 0 5.77 1.7 10.28 5.06 13.41 3.38 3.15 8.25 4.74 14.49 4.74s11.11-1.59 14.49-4.74c3.36-3.13 5.06-7.64 5.06-13.41 0-5.77-1.7-10.28-5.06-13.41-3.38-3.14-8.25-4.74-14.49-4.74zm42.81 53.02h-18.92v-54.27h16.81l.28 5.52c.86-1.37 1.9-2.56 3.12-3.53 2.26-1.81 5.01-2.72 8.17-2.72 4.83 0 8.6 1.8 11.22 5.34 2.55 3.45 3.84 8.35 3.84 14.58 0 6.32-1.32 11.33-3.91 14.87-2.67 3.64-6.44 5.49-11.22 5.49-2.7 0-5.03-.68-6.91-2.03-.92-.66-1.75-1.44-2.48-2.35zm-16.93-1.99h14.95v-25.24l1.9 4.18c.9 1.99 2.16 3.57 3.72 4.68 1.54 1.1 3.48 1.66 5.76 1.66 4.17 0 7.31-1.53 9.62-4.67 2.34-3.2 3.53-7.81 3.53-13.7 0-5.79-1.16-10.3-3.45-13.4-2.25-3.05-5.4-4.53-9.62-4.53-2.7 0-5.03.77-6.93 2.29-1.92 1.54-3.34 3.68-4.2 6.38l-1.66 5.16-.67-13.09h-12.94v50.28zm65.05-12.74c-7.19 0-12.76-1.75-16.54-5.19-3.81-3.47-5.74-8.5-5.74-14.95 0-6.34 1.9-11.34 5.65-14.86 3.73-3.5 9.03-5.28 15.74-5.28 6.57 0 11.69 1.73 15.23 5.14 3.55 3.42 5.35 8.07 5.35 13.82 0 1.96-.13 3.47-.39 4.64l-.18.77h-23c.28 1.13.67 1.66.98 1.92.6.49 1.58.74 2.91.74 2.18 0 2.76-.55 3.24-1.78l.31-.79 15.7 3.31-.23.99c-.9 3.8-3.13 6.72-6.63 8.67-3.42 1.89-7.58 2.85-12.4 2.85zm-.88-38.29c-6.19 0-11.03 1.59-14.38 4.74-3.33 3.13-5.02 7.64-5.02 13.41 0 5.87 1.71 10.4 5.09 13.48 3.4 3.1 8.52 4.67 15.2 4.67 4.47 0 8.31-.87 11.41-2.6 2.72-1.51 4.5-3.62 5.39-6.4l-12.07-2.54c-.89 1.6-2.32 2.27-4.73 2.27-1.8 0-3.2-.4-4.16-1.18-1-.81-1.62-2.22-1.9-4.32l-.15-1.13h23.72c.13-.91.2-2.06.2-3.42 0-5.19-1.59-9.36-4.74-12.39-3.16-3.05-7.82-4.59-13.86-4.59zm64.91 37.55h-18.92v-21.75c0-1.86-.27-2.56-.43-2.81-.08-.13-.3-.46-1.15-.46-1.15 0-1.6.52-1.84.92-.32.53-.7 1.62-.7 3.83v20.29h-18.92v-38.8h17.19l.24 5.24c.96-1.43 2.12-2.62 3.47-3.55 2.32-1.61 5.19-2.42 8.52-2.42 3.9 0 7 1.2 9.23 3.55 2.21 2.34 3.33 5.64 3.33 9.81v26.15zm-16.94-1.98h14.95v-24.19c0-3.65-.94-6.49-2.79-8.45-1.86-1.97-4.4-2.93-7.78-2.93-2.92 0-5.41.7-7.39 2.07-1.98 1.37-3.5 3.41-4.5 6.05l-1.7 4.49-.54-11.88h-13.3v34.83h14.95v-18.3c0-2.17.32-3.76.99-4.86.74-1.23 1.97-1.88 3.54-1.88 1.6 0 2.42.75 2.82 1.38.51.8.75 2.03.75 3.89z" style="fill:#fff;fill-opacity:1" transform="matrix(.32343 0 0 .32343 -15.52 -17.45)"/></g><path class="st1" d="M282.566 176.654v14.27c0 2.79-.76 4.92-2.27 6.37-1.51 1.45-3.64 2.18-6.39 2.18-2.75 0-4.88-.73-6.4-2.18-1.52-1.45-2.28-3.58-2.28-6.37v-14.27h1.7v13.93c0 2.41.6 4.23 1.79 5.47 1.19 1.24 2.92 1.86 5.19 1.86 2.27 0 4-.62 5.18-1.86 1.18-1.24 1.77-3.06 1.77-5.47v-13.93zm28.17 0v22.48h-1.64v-16.76l.2-4.09h-.03l-8.21 20.85h-1.57l-8.21-20.85h-.03l.2 4.09v16.76h-1.63v-22.48h2.55l6.78 17.03 1.12 3.44h.03l1.09-3.41 6.78-17.06zm15.36 22.75c-1.88 0-3.52-.4-4.9-1.19-1.39-.8-2.45-1.93-3.2-3.39-.75-1.46-1.12-3.21-1.12-5.23 0-2.02.37-3.76 1.12-5.23.75-1.46 1.82-2.59 3.2-3.39 1.38-.79 3.02-1.19 4.9-1.19 1.91 0 3.55.4 4.92 1.19 1.37.8 2.44 1.92 3.18 3.39.75 1.46 1.12 3.21 1.12 5.23 0 2.02-.38 3.76-1.12 5.23-.75 1.46-1.81 2.59-3.18 3.39-1.37.8-3.01 1.19-4.92 1.19zm0-1.46c1.54 0 2.88-.34 4-1 1.12-.67 1.99-1.63 2.61-2.88.61-1.25.92-2.74.92-4.46 0-1.75-.31-3.24-.92-4.48-.61-1.24-1.48-2.19-2.61-2.86-1.12-.67-2.46-1-4-1-1.52 0-2.85.34-3.99 1-1.14.67-2.01 1.62-2.62 2.86-.61 1.24-.92 2.73-.92 4.48 0 1.73.31 3.21.92 4.46.61 1.25 1.49 2.21 2.62 2.88 1.14.66 2.47 1 3.99 1zm30.52-17.88v19.08h-2.28l-10.39-15.16-1.29-2.11h-.03l.1 2.08v15.19h-1.67v-19.08h2.28l10.25 14.99 1.43 2.28h.03l-.1-2.08v-15.19zm20.81 0v1.46h-16.25v-1.46zm-7.25.64v18.43h-1.7v-18.43zm11.82 18.43v-19.08h7.6c2.02 0 3.62.48 4.8 1.45 1.18.96 1.77 2.3 1.77 4 0 1.7-.59 3.04-1.77 4-1.18.96-2.78 1.45-4.8 1.45h-5.89v8.18zm1.7-9.64h5.86c1.59 0 2.8-.34 3.64-1.02.84-.68 1.26-1.67 1.26-2.96 0-1.27-.42-2.25-1.26-2.95-.84-.69-2.06-1.04-3.64-1.04h-5.86zm11.51 9.64-5.82-8.62 1.43-.72 6.4 9.33h-2.01zm7.05 0v-19.08h13.76v1.46h-12.06v7.19h9.54v1.46h-9.54v7.49h12.54v1.46h-14.24zm8.35-27.15h1.81l-2.83 5.25h-1.4zm8.51 27.15 7.9-19.08h2.01l7.94 19.08h-1.81l-6.37-15.53-.75-1.98-.75 1.98-6.37 15.53zm3.58-5.93v-1.46h10.66v1.46zm20.44 4.47h11.89v1.46h-13.6v-19.08h1.7v17.62z" style="fill:#fff;fill-opacity:1" transform="matrix(.32343 0 0 .32343 -15.52 -17.45)"/></g></g></svg>